<?xml version="1.0" encoding="UTF-8" standalone="no"?>
<svg
   xmlns:dc="http://purl.org/dc/elements/1.1/"
   xmlns:cc="http://creativecommons.org/ns#"
   xmlns:rdf="http://www.w3.org/1999/02/22-rdf-syntax-ns#"
   xmlns:svg="http://www.w3.org/2000/svg"
   xmlns="http://www.w3.org/2000/svg"
   xmlns:sodipodi="http://sodipodi.sourceforge.net/DTD/sodipodi-0.dtd"
   xmlns:inkscape="http://www.inkscape.org/namespaces/inkscape"
   height="349.98785"
   width="2102.5674"
   inkscape:version="0.92.5 (2060ec1f9f, 2020-04-08)"
   sodipodi:docname="seekworker.svg"
   id="svg4"
   version="1.1"
   viewBox="0 0 2102.5673 349.98786"
   role="img"
   class="svg-inline--fa fa-globe fa-w-16"
   data-icon="globe"
   data-prefix="fas"
   focusable="false"
   aria-hidden="true"
   inkscape:export-filename="/home/matheus/MEGAsync/Devel/SeekWorkerWebFront/src/assets/img/seekworker.png"
   inkscape:export-xdpi="123"
   inkscape:export-ydpi="123">
  <metadata
     id="metadata10">
    <rdf:RDF>
      <cc:Work
         rdf:about="">
        <dc:format>image/svg+xml</dc:format>
        <dc:type
           rdf:resource="http://purl.org/dc/dcmitype/StillImage" />
        <dc:title />
      </cc:Work>
    </rdf:RDF>
  </metadata>
  <defs
     id="defs8">
    <filter
       id="filter1995"
       inkscape:label="Drop Shadow"
       style="color-interpolation-filters:sRGB">
      <feFlood
         id="feFlood1985"
         result="flood"
         flood-color="rgb(0,0,0)"
         flood-opacity="0.498039" />
      <feComposite
         id="feComposite1987"
         result="composite1"
         operator="in"
         in2="SourceGraphic"
         in="flood" />
      <feGaussianBlur
         id="feGaussianBlur1989"
         result="blur"
         stdDeviation="3"
         in="composite1" />
      <feOffset
         id="feOffset1991"
         result="offset"
         dy="13.3"
         dx="7.3" />
      <feComposite
         id="feComposite1993"
         result="fbSourceGraphic"
         operator="over"
         in2="offset"
         in="SourceGraphic" />
      <feColorMatrix
         id="feColorMatrix1997"
         values="0 0 0 -1 0 0 0 0 -1 0 0 0 0 -1 0 0 0 0 1 0"
         in="fbSourceGraphic"
         result="fbSourceGraphicAlpha" />
      <feFlood
         in="fbSourceGraphic"
         result="flood"
         flood-color="rgb(0,0,0)"
         flood-opacity="0.498039"
         id="feFlood1999" />
      <feComposite
         result="composite1"
         operator="in"
         in="flood"
         id="feComposite2001"
         in2="fbSourceGraphic" />
      <feGaussianBlur
         result="blur"
         stdDeviation="3"
         in="composite1"
         id="feGaussianBlur2003" />
      <feOffset
         result="offset"
         dy="13.3"
         dx="7.3"
         id="feOffset2005" />
      <feComposite
         result="composite2"
         operator="over"
         in="fbSourceGraphic"
         id="feComposite2007"
         in2="offset" />
    </filter>
    <filter
       id="filter2751"
       inkscape:label="Drop Shadow"
       style="color-interpolation-filters:sRGB">
      <feFlood
         id="feFlood2741"
         result="flood"
         flood-color="rgb(0,0,0)"
         flood-opacity="0.498039" />
      <feComposite
         id="feComposite2743"
         result="composite1"
         operator="in"
         in2="SourceGraphic"
         in="flood" />
      <feGaussianBlur
         id="feGaussianBlur2745"
         result="blur"
         stdDeviation="3"
         in="composite1" />
      <feOffset
         id="feOffset2747"
         result="offset"
         dy="-7.8"
         dx="-9.7" />
      <feComposite
         id="feComposite2749"
         result="composite2"
         operator="over"
         in2="offset"
         in="SourceGraphic" />
    </filter>
  </defs>
  <sodipodi:namedview
     inkscape:document-rotation="0"
     inkscape:current-layer="svg4"
     inkscape:window-maximized="1"
     inkscape:window-y="27"
     inkscape:window-x="0"
     inkscape:cy="-66.757535"
     inkscape:cx="1238.8408"
     inkscape:zoom="0.34043324"
     showgrid="false"
     id="namedview6"
     inkscape:window-height="704"
     inkscape:window-width="1366"
     inkscape:pageshadow="2"
     inkscape:pageopacity="0"
     guidetolerance="10"
     gridtolerance="10"
     objecttolerance="10"
     borderopacity="1"
     bordercolor="#666666"
     pagecolor="#ffffff"
     showguides="true"
     inkscape:guide-bbox="true" />
  <text
     id="text106"
     y="330.41919"
     x="-122.95459"
     style="font-style:normal;font-variant:normal;font-weight:bold;font-stretch:normal;font-size:470.75px;line-height:1.25;font-family:'Ubuntu Mono';-inkscape-font-specification:'Ubuntu Mono, Bold';font-variant-ligatures:normal;font-variant-caps:normal;font-variant-numeric:normal;fill:#e6e6e6;stroke-width:11.76869965"
     xml:space="preserve"><tspan
       style="fill:#e6e6e6;stroke-width:11.76869965"
       y="769.48407"
       x="-122.95459"
       id="tspan104"
       sodipodi:role="line" /></text>
  <text
     xml:space="preserve"
     style="font-size:55.2840538px;line-height:1.25;font-family:'Segoe MDL2 Assets';-inkscape-font-specification:'Segoe MDL2 Assets';letter-spacing:0px;word-spacing:0px;fill:#e6e6e6;stroke-width:1.38210142"
     x="287.00439"
     y="265.15186"
     id="text35"><tspan
       sodipodi:role="line"
       id="tspan33"
       x="287.00439"
       y="265.15186"
       style="font-style:normal;font-variant:normal;font-weight:normal;font-stretch:normal;font-size:265.36346436px;font-family:Audiowide;-inkscape-font-specification:'Audiowide, Normal';font-variant-ligatures:normal;font-variant-caps:normal;font-variant-numeric:normal;font-feature-settings:normal;text-align:start;writing-mode:lr-tb;text-anchor:start;fill:#e6e6e6;stroke-width:1.38210142">SeekWorker</tspan></text>
  <g
     style="fill:#e6e6e6"
     id="g5106"
     transform="translate(-277.52424,-27.289074)">
    <path
       id="path5091"
       d="m 383.44559,193.78895 c -1.57153,0.0485 -3.11824,0.19516 -4.63413,0.43525 -1.51595,0.24008 -3.00114,0.57252 -4.4499,0.99197 -1.44876,0.41946 -2.86095,0.92612 -4.23089,1.51267 -1.37001,0.58654 -2.69771,1.25328 -3.97728,1.99464 -1.27958,0.74135 -2.51137,1.55665 -3.68889,2.44055 -1.17751,0.8839 -2.30048,1.83628 -3.36446,2.85043 -1.06391,1.01416 -2.06787,2.0908 -3.00661,3.22293 -0.93875,1.13214 -1.81222,2.3202 -2.61411,3.55804 1.88364,1.61995 3.83729,3.16104 5.85573,4.61676 2.01845,1.45573 4.10122,2.8262 6.24428,4.10676 2.14299,1.28056 4.34607,2.47025 6.60335,3.56472 2.25729,1.09446 4.56919,2.09318 6.93051,2.99062 2.36133,0.89743 4.7718,1.69367 7.22684,2.38315 2.45511,0.68946 4.95404,1.27305 7.49261,1.74363 2.53857,0.47058 5.11707,0.82866 7.72885,1.06941 2.61185,0.24076 5.257,0.36315 7.93181,0.36315 2.67481,0 5.32132,-0.12239 7.93317,-0.36315 2.61185,-0.24075 5.18898,-0.59883 7.72755,-1.06941 2.53858,-0.47058 5.0388,-1.05417 7.49391,-1.74363 2.45504,-0.68948 4.86558,-1.48572 7.22684,-2.38315 2.36132,-0.89744 4.67323,-1.89616 6.93051,-2.99062 2.25728,-1.09447 4.46043,-2.28416 6.60342,-3.56472 2.14299,-1.28056 4.22576,-2.65103 6.24421,-4.10676 2.01851,-1.45572 3.97209,-2.99681 5.85573,-4.61676 -0.80189,-1.23784 -1.67536,-2.42566 -2.61411,-3.5567 -0.93867,-1.13105 -1.9427,-2.20512 -3.00661,-3.21759 -1.06391,-1.01247 -2.18688,-1.96296 -3.36446,-2.84509 -1.17752,-0.88213 -2.40931,-1.69654 -3.68889,-2.43655 -1.2795,-0.74002 -2.60727,-1.40585 -3.97721,-1.99197 -1.36995,-0.58612 -2.7822,-1.0922 -4.23096,-1.51267 -1.44876,-0.42046 -2.93395,-0.75562 -4.44983,-0.99865 -1.51596,-0.24303 -3.06267,-0.39344 -4.63413,-0.44726 -2.2389,0.69965 -4.451,1.30774 -6.64348,1.82641 -2.19248,0.51869 -4.36514,0.94796 -6.52597,1.28971 -2.16084,0.34175 -4.30985,0.59615 -6.45386,0.76501 -2.14402,0.16886 -4.2838,0.25233 -6.42583,0.25233 -2.14197,0 -4.28045,-0.0868 -6.42447,-0.259 -2.14401,-0.17223 -4.29302,-0.42992 -6.45385,-0.77436 -2.16084,-0.34444 -4.3335,-0.77571 -6.52598,-1.29237 -2.19241,-0.51667 -4.40458,-1.11884 -6.64341,-1.80773 z"
       clip-path="none"
       style="fill:#e6e6e6;stroke-width:0.68356997"
       inkscape:connector-curvature="0" />
    <path
       id="path5085"
       d="m 409.4933,96.080029 c -1.4262,0 -2.83511,0.07111 -4.22426,0.212276 -1.38908,0.141171 -2.75766,0.352093 -4.10272,0.627497 -1.34506,0.275403 -2.66585,0.615985 -3.95992,1.018683 -1.29407,0.402698 -2.56216,0.86678 -3.79833,1.389834 -1.23616,0.523055 -2.4415,1.104491 -3.6128,1.740961 -1.1713,0.63648 -2.30766,1.32778 -3.40712,2.07074 -1.09952,0.74296 -2.16213,1.53798 -3.1829,2.38048 -1.02078,0.8425 -1.99945,1.73375 -2.93457,2.66886 -0.93506,0.93511 -1.82636,1.91377 -2.66886,2.93455 -0.8425,1.02077 -1.6362,2.08336 -2.3791,3.18287 -0.74297,1.09951 -1.43563,2.23587 -2.0721,3.40717 -0.63648,1.1713 -1.21792,2.37661 -1.74099,3.61277 -0.523,1.23616 -0.98707,2.50294 -1.38983,3.79702 -0.40269,1.29407 -0.74325,2.61617 -1.01866,3.96123 -0.27541,1.34507 -0.48629,2.71365 -0.62752,4.10276 -0.14115,1.3891 -0.21224,2.79804 -0.21224,4.22425 0,1.42621 0.0711,2.83648 0.21224,4.22558 0.14123,1.3891 0.35211,2.7577 0.62752,4.10275 0.27541,1.34506 0.61597,2.66583 1.01866,3.9599 0.40276,1.29408 0.86683,2.56086 1.38983,3.79702 0.52307,1.23616 1.10451,2.44148 1.74099,3.61278 0.63647,1.1713 1.32913,2.30899 2.0721,3.4085 0.7429,1.09951 1.5366,2.1621 2.3791,3.18287 0.8425,1.02078 1.7338,1.99944 2.66886,2.93455 0.93512,0.93511 1.91379,1.82636 2.93457,2.66886 1.02077,0.8425 2.08338,1.63619 3.1829,2.37914 1.09946,0.74296 2.23582,1.43426 3.40712,2.07074 1.1713,0.63647 2.37664,1.21791 3.6128,1.74097 1.23617,0.52305 2.50426,0.98847 3.79833,1.39117 1.29407,0.4027 2.61486,0.74327 3.95992,1.01868 1.34506,0.2754 2.71364,0.48499 4.10272,0.62616 1.38915,0.14117 2.79806,0.21362 4.22426,0.21362 1.4262,0 2.83647,-0.0725 4.22562,-0.21362 1.38908,-0.14117 2.75766,-0.35076 4.10272,-0.62616 1.34506,-0.27541 2.66585,-0.61598 3.95992,-1.01868 1.29407,-0.4027 2.56086,-0.86812 3.79703,-1.39117 1.23616,-0.52306 2.4428,-1.1045 3.6141,-1.74097 1.1713,-0.63648 2.30766,-1.32778 3.40719,-2.07074 1.09952,-0.74295 2.16206,-1.53664 3.18283,-2.37914 1.02078,-0.8425 1.99945,-1.73375 2.93457,-2.66886 0.93512,-0.93511 1.82636,-1.91377 2.66886,-2.93455 0.8425,-1.02077 1.6362,-2.08336 2.37917,-3.18287 0.7429,-1.09951 1.43426,-2.2372 2.07074,-3.4085 0.63647,-1.1713 1.21921,-2.37662 1.74228,-3.61278 0.52307,-1.23616 0.98714,-2.50294 1.38983,-3.79702 0.40269,-1.29407 0.74325,-2.61484 1.01866,-3.9599 0.27541,-1.34505 0.48499,-2.71365 0.62615,-4.10275 0.14123,-1.3891 0.21362,-2.79937 0.21362,-4.22558 0,-1.42621 -0.0724,-2.83515 -0.21362,-4.22425 -0.14116,-1.38911 -0.35074,-2.75769 -0.62615,-4.10276 -0.27541,-1.34506 -0.61597,-2.66716 -1.01866,-3.96123 -0.40269,-1.29408 -0.86676,-2.56086 -1.38983,-3.79702 -0.52307,-1.23616 -1.10581,-2.44147 -1.74228,-3.61277 -0.63648,-1.1713 -1.32784,-2.30766 -2.07074,-3.40717 -0.74297,-1.09951 -1.53667,-2.1621 -2.37917,-3.18287 -0.8425,-1.02078 -1.73374,-1.99944 -2.66886,-2.93455 -0.93512,-0.93511 -1.91379,-1.82636 -2.93457,-2.66886 -1.02077,-0.8425 -2.08331,-1.63752 -3.18283,-2.38048 -1.09953,-0.74296 -2.23589,-1.43426 -3.40719,-2.07074 -1.1713,-0.63647 -2.37794,-1.217906 -3.6141,-1.740961 -1.23617,-0.523054 -2.50296,-0.987136 -3.79703,-1.389834 -1.29407,-0.402698 -2.61486,-0.74328 -3.95992,-1.018683 -1.34506,-0.275404 -2.71364,-0.486326 -4.10272,-0.627497 -1.38915,-0.141171 -2.79935,-0.212276 -4.22562,-0.212276 z m 0,20.665971 c 1.4262,0 2.81911,0.14515 4.16417,0.42056 1.34506,0.2754 2.64234,0.6812 3.87851,1.20426 1.23616,0.52305 2.41177,1.16222 3.51129,1.90518 1.09952,0.74296 2.12358,1.58956 3.0587,2.52467 0.93513,0.93511 1.78036,1.9592 2.52333,3.05871 0.74297,1.09951 1.38348,2.27381 1.90655,3.50997 0.523,1.23616 0.92883,2.53474 1.20424,3.8798 0.27541,1.34505 0.42053,2.73662 0.42053,4.16283 0,1.42621 -0.14512,2.81911 -0.42053,4.16417 -0.27541,1.34505 -0.68124,2.6423 -1.20424,3.87845 -0.52307,1.23616 -1.16358,2.4118 -1.90655,3.51131 -0.74297,1.09951 -1.5882,2.12361 -2.52333,3.05871 -0.93512,0.93511 -1.95918,1.78038 -3.0587,2.52334 -1.09952,0.74295 -2.27513,1.38346 -3.51129,1.90651 -1.23617,0.52306 -2.53345,0.92886 -3.87851,1.20426 -1.34506,0.27541 -2.73797,0.42056 -4.16417,0.42056 -1.4262,0 -2.81775,-0.14515 -4.16281,-0.42056 -1.34506,-0.2754 -2.64364,-0.6812 -3.8798,-1.20426 -1.23617,-0.52305 -2.41048,-1.16356 -3.51,-1.90651 -1.09945,-0.74296 -2.12358,-1.58823 -3.0587,-2.52334 -0.93506,-0.9351 -1.78166,-1.9592 -2.52463,-3.05871 -0.74297,-1.09951 -1.38211,-2.27515 -1.90518,-3.51131 -0.52307,-1.23615 -0.9289,-2.5334 -1.20424,-3.87845 -0.27541,-1.34506 -0.4206,-2.73796 -0.4206,-4.16417 0,-1.42621 0.14519,-2.81778 0.4206,-4.16283 0.27534,-1.34506 0.68117,-2.64364 1.20424,-3.8798 0.52307,-1.23616 1.16221,-2.41046 1.90518,-3.50997 0.74297,-1.09951 1.58957,-2.1236 2.52463,-3.05871 0.93512,-0.93511 1.95925,-1.78171 3.0587,-2.52467 1.09952,-0.74296 2.27383,-1.38213 3.51,-1.90518 1.23616,-0.52306 2.53474,-0.92886 3.8798,-1.20426 1.34506,-0.27541 2.73661,-0.42056 4.16281,-0.42056 z"
       clip-path="none"
       style="fill:#e6e6e6;stroke-width:0.68356997"
       inkscape:connector-curvature="0" />
    <path
       id="path4777"
       d="m 408.76967,27.289074 c -72.48508,1e-6 -131.24543,58.760357 -131.24543,131.245436 0,52.9172 18.4356,67.69456 117.75695,211.68106 6.51716,9.4148 20.45782,9.41549 26.97566,0 C 521.5782,226.22907 540.0151,211.45171 540.0151,158.53451 540.0151,86.049431 481.25475,27.289074 408.76967,27.289074 Z m 0.72363,23.457666 c 3.68663,0 7.32958,0.185625 10.91975,0.55006 3.59025,0.364435 7.12875,0.907137 10.6047,1.618138 3.47596,0.711001 6.8897,1.590445 10.23352,2.630142 3.34382,1.039698 6.61785,2.239553 9.81163,3.590078 3.19384,1.350524 6.30771,2.851792 9.33366,4.495273 3.02596,1.643482 5.96347,3.429833 8.80363,5.348402 2.84024,1.918568 5.58361,3.969667 8.22021,6.145454 2.63666,2.175784 5.1669,4.475306 7.58202,6.890441 2.41512,2.415135 4.71465,4.945403 6.89045,7.582014 2.1758,2.636612 4.22822,5.379976 6.1468,8.220196 1.91858,2.840222 3.70358,5.777672 5.34709,8.803632 1.64344,3.02596 3.14469,6.14118 4.49522,9.33501 1.35053,3.19383 2.5504,6.46647 3.59011,9.81029 1.03971,3.34383 1.91913,6.75757 2.63011,10.23353 0.71105,3.47596 1.25373,7.01445 1.61814,10.60468 0.36448,3.59022 0.55144,7.23315 0.55144,10.91976 0,3.68661 -0.18696,7.32954 -0.55144,10.91977 -0.36441,3.59021 -0.90709,7.12738 -1.61814,10.60334 -0.71098,3.47596 -1.5904,6.88969 -2.63011,10.23352 -1.03971,3.34383 -2.23958,6.6178 -3.59011,9.81163 -1.35053,3.19383 -2.85178,6.30771 -4.49522,9.33367 -1.64351,3.02596 -3.42851,5.96341 -5.34709,8.80364 -1.91858,2.84022 -3.971,5.58358 -6.1468,8.22019 -2.1758,2.63661 -4.47533,5.16689 -6.89045,7.58202 -2.41512,2.41513 -4.94536,4.71465 -7.58202,6.89044 -2.6366,2.17579 -5.37997,4.22822 -8.22021,6.14679 -2.84016,1.91857 -5.77767,3.70358 -8.80363,5.34707 -3.02595,1.64348 -6.13982,3.14474 -9.33366,4.49527 -3.19378,1.35052 -6.46781,2.55038 -9.81163,3.59007 -3.34382,1.0397 -6.75756,1.91915 -10.23352,2.63015 -3.47595,0.711 -7.01445,1.2537 -10.6047,1.61813 -3.59017,0.36444 -7.23312,0.5514 -10.91975,0.5514 -3.68656,0 -7.32951,-0.18696 -10.91976,-0.5514 -3.59018,-0.36443 -7.12738,-0.90713 -10.60333,-1.61813 -3.47596,-0.711 -6.8897,-1.59045 -10.23352,-2.63015 -3.34382,-1.03969 -6.61778,-2.23955 -9.81163,-3.59007 -3.19384,-1.35053 -6.30771,-2.85179 -9.33366,-4.49527 -3.02596,-1.64349 -5.9634,-3.4285 -8.80363,-5.34707 -2.84024,-1.91857 -5.58361,-3.971 -8.22021,-6.14679 -2.63659,-2.17579 -5.1669,-4.47531 -7.58202,-6.89044 -2.41512,-2.41513 -4.71465,-4.94541 -6.89045,-7.58202 -2.1758,-2.63661 -4.22822,-5.37997 -6.1468,-8.22019 -1.91857,-2.84023 -3.70358,-5.77768 -5.34702,-8.80364 -1.64351,-3.02596 -3.14476,-6.13984 -4.49529,-9.33367 -1.35053,-3.19383 -2.5504,-6.4678 -3.59011,-9.81163 -1.03964,-3.34383 -1.91913,-6.75756 -2.63011,-10.23352 -0.71098,-3.47596 -1.25373,-7.01313 -1.61814,-10.60334 -0.36441,-3.59023 -0.55137,-7.23316 -0.55137,-10.91977 0,-3.68661 0.18696,-7.32954 0.55137,-10.91976 0.36441,-3.59023 0.90716,-7.12872 1.61814,-10.60468 0.71098,-3.47596 1.59047,-6.8897 2.63011,-10.23353 1.03971,-3.34382 2.23958,-6.61646 3.59011,-9.81029 1.35053,-3.19383 2.85178,-6.30905 4.49529,-9.33501 1.64344,-3.02596 3.42845,-5.96341 5.34702,-8.803632 1.91858,-2.84022 3.971,-5.583584 6.1468,-8.220196 2.1758,-2.636611 4.47533,-5.166879 6.89045,-7.582014 2.41512,-2.415135 4.94543,-4.714657 7.58202,-6.890441 2.6366,-2.175787 5.37997,-4.226886 8.22021,-6.145454 2.84023,-1.918569 5.77767,-3.70492 8.80363,-5.348402 3.02595,-1.643481 6.13982,-3.144749 9.33366,-4.495273 3.19385,-1.350525 6.46781,-2.55038 9.81163,-3.590078 3.34382,-1.039697 6.75756,-1.919141 10.23352,-2.630142 3.47595,-0.711001 7.01315,-1.253703 10.60333,-1.618138 3.59025,-0.364435 7.2332,-0.55006 10.91976,-0.55006 z"
       clip-path="none"
       style="fill:#e6e6e6;stroke-width:0.68356997"
       inkscape:connector-curvature="0" />
  </g>
</svg>
